HIERARCHY
ROOT Hips
{
	OFFSET 1.324476 86.935013 4.250773
	CHANNELS 6 Xposition Yposition Zposition Zrotation Yrotation Xrotation 
	JOINT Spine
	{
		OFFSET 0.000000 8.814246 -2.080107
		CHANNELS 3 Zrotation Yrotation Xrotation
		JOINT Spine1
		{
			OFFSET 0.000000 8.844141 -0.000000
			CHANNELS 3 Zrotation Yrotation Xrotation
			JOINT Spine2
			{
				OFFSET 0.000000 11.682268 0.000000
				CHANNELS 3 Zrotation Yrotation Xrotation
				JOINT Spine3
				{
					OFFSET 0.000000 11.746700 0.000000
					CHANNELS 3 Zrotation Yrotation Xrotation
					JOINT Neck
					{
						OFFSET -0.000000 17.658264 -0.000000
						CHANNELS 3 Zrotation Yrotation Xrotation
						JOINT Neck1
						{
							OFFSET 0.000000 5.101515 -0.000000
							CHANNELS 3 Zrotation Yrotation Xrotation
							JOINT Head
							{
								OFFSET 0.000000 5.101515 0.000000
								CHANNELS 3 Zrotation Yrotation Xrotation
								JOINT HeadEnd
								{
									OFFSET -0.000000 11.655085 0.000000
									CHANNELS 3 Zrotation Yrotation Xrotation
									End Site
									{
										OFFSET 0.000000 0.000000 0.000000
									}
								}
							}
						}
					}
					JOINT RightShoulder
					{
						OFFSET -2.625389 11.175210 -0.000000
						CHANNELS 3 Zrotation Yrotation Xrotation
						JOINT RightArm
						{
							OFFSET -0.000000 10.434715 -0.000000
							CHANNELS 3 Zrotation Yrotation Xrotation
							JOINT RightForeArm
							{
								OFFSET -0.000000 29.628420 -0.000000
								CHANNELS 3 Zrotation Yrotation Xrotation
								JOINT RightHand
								{
									OFFSET -0.000000 22.857611 -0.000000
									CHANNELS 3 Zrotation Yrotation Xrotation
									JOINT RightHandThumb1
									{
										OFFSET -2.867323 3.959563 2.944291
										CHANNELS 3 Zrotation Yrotation Xrotation
										JOINT RightHandThumb2
										{
											OFFSET -0.000000 3.350399 0.000000
											CHANNELS 3 Zrotation Yrotation Xrotation
											JOINT RightHandThumb3
											{
												OFFSET 0.000000 3.756509 -0.000000
												CHANNELS 3 Zrotation Yrotation Xrotation
												JOINT RightHandThumb4
												{
													OFFSET 0.000000 3.147345 -0.000000
													CHANNELS 3 Zrotation Yrotation Xrotation
													End Site
													{
														OFFSET 0.000000 0.000000 0.000000
													}
												}
											}
										}
									}
									JOINT RightHandIndex1
									{
										OFFSET -0.086752 10.030893 2.345280
										CHANNELS 3 Zrotation Yrotation Xrotation
										JOINT RightHandIndex2
										{
											OFFSET -0.000000 4.061090 -0.000000
											CHANNELS 3 Zrotation Yrotation Xrotation
											JOINT RightHandIndex3
											{
												OFFSET 0.000000 3.248873 0.000000
												CHANNELS 3 Zrotation Yrotation Xrotation
												JOINT RightHandIndex4
												{
													OFFSET 0.000000 2.639709 -0.000000
													CHANNELS 3 Zrotation Yrotation Xrotation
													End Site
													{
														OFFSET 0.000000 0.000000 0.000000
													}
												}
											}
										}
									}
									JOINT RightHandMiddle1
									{
										OFFSET 0.104102 9.502952 0.006768
										CHANNELS 3 Zrotation Yrotation Xrotation
										JOINT RightHandMiddle2
										{
											OFFSET 0.000000 4.568727 0.000000
											CHANNELS 3 Zrotation Yrotation Xrotation
											JOINT RightHandMiddle3
											{
												OFFSET 0.000000 3.654981 -0.000000
												CHANNELS 3 Zrotation Yrotation Xrotation
												JOINT RightHandMiddle4
												{
													OFFSET -0.000000 2.741236 -0.000000
													CHANNELS 3 Zrotation Yrotation Xrotation
													End Site
													{
														OFFSET 0.000000 0.000000 0.000000
													}
												}
											}
										}
									}
									JOINT RightHandRing1
									{
										OFFSET 0.086752 8.921708 -2.267442
										CHANNELS 3 Zrotation Yrotation Xrotation
										JOINT RightHandRing2
										{
											OFFSET -0.000000 4.061090 0.000000
											CHANNELS 3 Zrotation Yrotation Xrotation
											JOINT RightHandRing3
											{
												OFFSET -0.000000 3.654981 -0.000000
												CHANNELS 3 Zrotation Yrotation Xrotation
												JOINT RightHandRing4
												{
													OFFSET -0.000000 2.741236 -0.000000
													CHANNELS 3 Zrotation Yrotation Xrotation
													End Site
													{
														OFFSET 0.000000 0.000000 0.000000
													}
												}
											}
										}
									}
									JOINT RightHandPinky1
									{
										OFFSET -0.173504 7.976997 -4.467199
										CHANNELS 3 Zrotation Yrotation Xrotation
										JOINT RightHandPinky2
										{
											OFFSET -0.000000 3.350399 -0.000000
											CHANNELS 3 Zrotation Yrotation Xrotation
											JOINT RightHandPinky3
											{
												OFFSET -0.000000 2.842763 -0.000000
												CHANNELS 3 Zrotation Yrotation Xrotation
												JOINT RightHandPinky4
												{
													OFFSET 0.000000 2.639709 0.000000
													CHANNELS 3 Zrotation Yrotation Xrotation
													End Site
													{
														OFFSET 0.000000 0.000000 0.000000
													}
												}
											}
										}
									}
									JOINT RightForeArmEnd
									{
										OFFSET 0.000000 0.000000 0.000000
										CHANNELS 3 Zrotation Yrotation Xrotation
										End Site
										{
											OFFSET 0.000000 0.000000 0.000000
										}
									}
								}
								JOINT RightArmEnd
								{
									OFFSET 0.000000 0.000000 0.000000
									CHANNELS 3 Zrotation Yrotation Xrotation
									End Site
									{
										OFFSET 0.000000 0.000000 0.000000
									}
								}
							}
						}
					}
					JOINT LeftShoulder
					{
						OFFSET 2.625389 11.175210 -0.000000
						CHANNELS 3 Zrotation Yrotation Xrotation
						JOINT LeftArm
						{
							OFFSET 0.000000 10.813635 0.000000
							CHANNELS 3 Zrotation Yrotation Xrotation
							JOINT LeftForeArm
							{
								OFFSET 0.000000 28.724781 -0.000000
								CHANNELS 3 Zrotation Yrotation Xrotation
								JOINT LeftHand
								{
									OFFSET 0.644384 25.716167 -0.328871
									CHANNELS 3 Zrotation Yrotation Xrotation
									JOINT LeftHandThumb1
									{
										OFFSET 2.867323 3.959563 2.944291
										CHANNELS 3 Zrotation Yrotation Xrotation
										JOINT LeftHandThumb2
										{
											OFFSET -0.000000 3.350399 -0.000000
											CHANNELS 3 Zrotation Yrotation Xrotation
											JOINT LeftHandThumb3
											{
												OFFSET -0.000000 3.756509 0.000000
												CHANNELS 3 Zrotation Yrotation Xrotation
												JOINT LeftHandThumb4
												{
													OFFSET 0.000000 3.100000 -0.000000
													CHANNELS 3 Zrotation Yrotation Xrotation
													End Site
													{
														OFFSET 0.000000 0.000000 0.000000
													}
												}
											}
										}
									}
									JOINT LeftHandIndex1
									{
										OFFSET 0.086752 10.030893 2.345280
										CHANNELS 3 Zrotation Yrotation Xrotation
										JOINT LeftHandIndex2
										{
											OFFSET 0.000000 4.061090 -0.000000
											CHANNELS 3 Zrotation Yrotation Xrotation
											JOINT LeftHandIndex3
											{
												OFFSET 0.000000 3.248873 -0.000000
												CHANNELS 3 Zrotation Yrotation Xrotation
												JOINT LeftHandIndex4
												{
													OFFSET -0.000000 2.639709 0.000000
													CHANNELS 3 Zrotation Yrotation Xrotation
													End Site
													{
														OFFSET 0.000000 0.000000 0.000000
													}
												}
											}
										}
									}
									JOINT LeftHandMiddle1
									{
										OFFSET -0.104102 9.502952 0.006768
										CHANNELS 3 Zrotation Yrotation Xrotation
										JOINT LeftHandMiddle2
										{
											OFFSET 0.000000 4.568727 -0.000000
											CHANNELS 3 Zrotation Yrotation Xrotation
											JOINT LeftHandMiddle3
											{
												OFFSET 0.000000 3.654981 -0.000000
												CHANNELS 3 Zrotation Yrotation Xrotation
												JOINT LeftHandMiddle4
												{
													OFFSET -0.000000 2.741236 0.000000
													CHANNELS 3 Zrotation Yrotation Xrotation
													End Site
													{
														OFFSET 0.000000 0.000000 0.000000
													}
												}
											}
										}
									}
									JOINT LeftHandRing1
									{
										OFFSET -0.086752 8.921708 -2.267442
										CHANNELS 3 Zrotation Yrotation Xrotation
										JOINT LeftHandRing2
										{
											OFFSET 0.000000 4.061090 -0.000000
											CHANNELS 3 Zrotation Yrotation Xrotation
											JOINT LeftHandRing3
											{
												OFFSET 0.000000 3.654981 -0.000000
												CHANNELS 3 Zrotation Yrotation Xrotation
												JOINT LeftHandRing4
												{
													OFFSET 0.000000 2.741236 0.000000
													CHANNELS 3 Zrotation Yrotation Xrotation
													End Site
													{
														OFFSET 0.000000 0.000000 0.000000
													}
												}
											}
										}
									}
									JOINT LeftHandPinky1
									{
										OFFSET 0.173504 7.976997 -4.467199
										CHANNELS 3 Zrotation Yrotation Xrotation
										JOINT LeftHandPinky2
										{
											OFFSET 0.000000 3.350399 -0.000000
											CHANNELS 3 Zrotation Yrotation Xrotation
											JOINT LeftHandPinky3
											{
												OFFSET -0.000000 2.842763 0.000000
												CHANNELS 3 Zrotation Yrotation Xrotation
												JOINT LeftHandPinky4
												{
													OFFSET 0.000000 2.639709 -0.000000
													CHANNELS 3 Zrotation Yrotation Xrotation
													End Site
													{
														OFFSET 0.000000 0.000000 0.000000
													}
												}
											}
										}
									}
									JOINT LeftForeArmEnd
									{
										OFFSET 0.000000 0.000000 0.000000
										CHANNELS 3 Zrotation Yrotation Xrotation
										End Site
										{
											OFFSET 0.000000 0.000000 0.000000
										}
									}
								}
								JOINT LeftArmEnd
								{
									OFFSET 0.000000 0.000000 0.000000
									CHANNELS 3 Zrotation Yrotation Xrotation
									End Site
									{
										OFFSET 0.000000 0.000000 0.000000
									}
								}
							}
						}
					}
				}
			}
		}
	}
	JOINT RightUpLeg
	{
		OFFSET -11.289943 -0.000000 0.000000
		CHANNELS 3 Zrotation Yrotation Xrotation
		JOINT RightLeg
		{
			OFFSET -0.000000 -38.200325 -0.000000
			CHANNELS 3 Zrotation Yrotation Xrotation
			JOINT RightFoot
			{
				OFFSET -0.000000 -39.900856 0.000000
				CHANNELS 3 Zrotation Yrotation Xrotation
				JOINT RightToeBase
				{
					OFFSET 0.000000 0.000000 15.261641
					CHANNELS 3 Zrotation Yrotation Xrotation
					JOINT RightToeBaseEnd
					{
						OFFSET 0.000000 -0.000000 7.370709
						CHANNELS 3 Zrotation Yrotation Xrotation
						End Site
						{
							OFFSET 0.000000 0.000000 0.000000
						}
					}
				}
				JOINT RightLegEnd
				{
					OFFSET 0.000000 0.000000 0.000000
					CHANNELS 3 Zrotation Yrotation Xrotation
					End Site
					{
						OFFSET 0.000000 0.000000 0.000000
					}
				}
			}
			JOINT RightUpLegEnd
			{
				OFFSET 0.000000 0.000000 0.000000
				CHANNELS 3 Zrotation Yrotation Xrotation
				End Site
				{
					OFFSET 0.000000 0.000000 0.000000
				}
			}
		}
	}
	JOINT LeftUpLeg
	{
		OFFSET 11.315661 0.000000 -0.000000
		CHANNELS 3 Zrotation Yrotation Xrotation
		JOINT LeftLeg
		{
			OFFSET -0.000000 -38.200325 0.000000
			CHANNELS 3 Zrotation Yrotation Xrotation
			JOINT LeftFoot
			{
				OFFSET -0.000000 -39.900856 0.000000
				CHANNELS 3 Zrotation Yrotation Xrotation
				JOINT LeftToeBase
				{
					OFFSET -0.000000 0.000000 15.261641
					CHANNELS 3 Zrotation Yrotation Xrotation
					JOINT LeftToeBaseEnd
					{
						OFFSET -0.000000 0.000000 7.539996
						CHANNELS 3 Zrotation Yrotation Xrotation
						End Site
						{
							OFFSET 0.000000 0.000000 0.000000
						}
					}
				}
				JOINT LeftLegEnd
				{
					OFFSET 0.000000 0.000000 0.000000
					CHANNELS 3 Zrotation Yrotation Xrotation
					End Site
					{
						OFFSET 0.000000 0.000000 0.000000
					}
				}
			}
			JOINT LeftUpLegEnd
			{
				OFFSET 0.000000 0.000000 0.000000
				CHANNELS 3 Zrotation Yrotation Xrotation
				End Site
				{
					OFFSET 0.000000 0.000000 0.000000
				}
			}
		}
	}
}
MOTION
Frames: 4
Frame Time: 0.016667
1.324476 86.935013 4.250773 -0.005520 -0.000820 -8.454336 -9.502729 2.132209 2.603971 23.001511 -7.753243 4.944421 -18.496262 2.613333 4.758206 6.376277 -2.118146 -0.085917 6.159887 1.680514 13.992615 -3.575328 1.129971 -5.854432 -0.653064 3.409355 -25.356731 0.000000 0.000000 0.000000 100.776543 -0.800587 3.953491 53.386036 -44.861557 2.161399 1.646132 15.969770 37.149387 2.687206 15.016356 -12.363097 9.441423 -1.728222 40.406590 0.000000 0.000000 -23.039999 0.000000 0.000000 -15.999999 0.000000 0.000000 0.000000 10.604505 0.000000 -9.643257 7.423153 0.000000 0.000000 7.423153 0.000000 0.000000 0.000000 0.000000 0.000000 11.399842 0.000000 -11.609115 7.979890 0.000000 0.000000 7.979890 0.000000 0.000000 0.000000 0.000000 0.000000 13.540874 0.000000 -12.430757 9.478612 0.000000 0.000000 9.478612 0.000000 0.000000 0.000000 0.000000 0.000000 14.975492 0.000000 -15.047190 10.482848 0.000000 0.000000 10.482848 0.000000 0.000000 0.000000 0.000000 0.000000 0.000000 0.000000 0.000000 0.000000 0.000000 0.000000 -95.208824 0.461970 4.229309 -60.893921 44.539249 -2.663038 -1.430935 -6.288035 50.052158 -2.959770 -13.881307 -14.714699 -8.844158 1.663611 40.678265 0.000000 0.000000 -21.599998 0.000000 0.000000 -15.000001 0.000000 0.000000 0.000000 -12.041668 0.000000 -12.461102 -8.429168 0.000000 0.000000 -8.429168 0.000000 0.000000 0.000000 0.000000 0.000000 -12.888119 -0.000000 -13.922879 -9.021683 0.000000 0.000000 -9.021683 0.000000 0.000000 0.000000 0.000000 0.000000 -15.009265 0.000000 -13.607731 -10.506484 0.000000 0.000000 -10.506484 0.000000 0.000000 0.000000 0.000000 0.000000 -16.041897 -0.000000 -13.917473 -11.229328 0.000000 0.000000 -11.229328 0.000000 0.000000 0.000000 0.000000 0.000000 0.000000 0.000000 0.000000 0.000000 0.000000 0.000000 -3.804071 -6.247012 10.866132 -0.277084 -1.224930 12.755727 -0.078077 -16.042011 13.849055 -0.819756 -0.598396 -27.499289 0.000000 0.000000 0.000000 0.000000 0.000000 0.000000 0.000000 0.000000 0.000000 6.390305 4.668367 7.751981 0.242041 1.004258 13.551477 -0.124300 2.065108 14.313011 0.291276 0.297029 -28.654657 0.000000 0.000000 0.000000 0.000000 0.000000 0.000000 0.000000 0.000000 0.000000 
1.306805 86.341690 4.524770 -0.354144 -0.290580 -10.364789 -1.386245 0.158623 6.371522 8.718129 -2.352747 1.646206 -8.087586 1.843915 9.490489 2.407922 -0.963192 -0.890137 7.263393 1.941506 12.798331 -2.875005 1.745536 -5.292729 -0.401858 3.293229 -24.462952 0.000000 0.000000 0.000000 99.660965 -1.548668 2.936893 58.886078 -42.309704 -0.185519 1.187069 18.050388 37.326443 1.363245 15.628278 -10.220587 9.300248 -1.720082 40.307709 -0.000000 0.000039 -22.974655 0.000001 0.000048 -15.842936 0.000001 -0.000006 -0.000030 9.296442 0.261187 -9.124648 7.108995 -0.060417 0.065465 7.173445 -0.027932 0.018243 -0.000020 0.000005 -0.000035 10.380133 0.085749 -11.277508 7.593268 -0.040172 0.029582 7.570797 -0.009099 0.029833 0.000032 0.000103 -0.000003 12.818477 -0.154696 -12.230868 9.084091 0.055963 -0.030624 9.026499 0.007919 -0.023841 -0.000024 0.000272 0.000015 14.269676 -0.428158 -14.959698 10.153782 0.116342 0.045257 10.094639 -0.006273 0.007401 -0.000134 -0.000005 0.000025 0.000000 0.000000 0.000000 0.000000 0.000000 0.000000 -93.322090 0.503696 4.905247 -58.299519 47.665394 0.480212 -1.835362 -8.953107 49.920120 -1.799151 -15.203841 -16.371506 -8.742175 1.635057 40.620312 0.000006 0.000035 -21.422653 -0.000040 -0.000035 -14.641268 -0.000237 -0.000001 -0.000761 -11.832581 0.286214 -12.270571 -7.951257 -0.013927 0.175534 -7.973681 0.025801 0.152989 0.000003 -0.000107 -0.000021 -12.710781 0.130012 -13.200383 -8.694138 -0.027733 0.052475 -8.377886 0.004111 0.041019 -0.001024 -0.000059 -0.000020 -14.993309 -0.114398 -12.116517 -10.192344 0.054501 -0.100337 -10.189246 -0.007841 -0.070652 0.000478 0.000008 0.000006 -16.644772 -0.420657 -12.070407 -11.254803 0.070450 -0.243386 -11.240406 -0.039319 -0.187213 -0.000763 0.000003 -0.000038 0.000000 0.000000 0.000000 0.000000 0.000000 0.000000 -4.137918 -6.466447 12.061398 -0.189205 -0.910806 12.689513 -0.445670 -14.385803 15.865805 -0.382646 -0.896553 -28.355869 0.000000 0.000000 0.000000 0.000000 0.000000 0.000000 0.000000 0.000000 0.000000 6.708806 4.447470 10.692079 0.212469 0.980858 11.698634 -0.227814 4.515680 15.815593 0.419595 0.142183 -27.815420 0.000000 0.000000 0.000000 0.000000 0.000000 0.000000 0.000000 0.000000 0.000000 
1.270237 86.309822 4.642035 -0.437342 -0.280730 -10.576682 -1.327329 0.160933 6.541357 8.590791 -2.337798 1.614631 -7.818524 1.728113 9.613465 2.393373 -0.975825 -0.854150 7.300591 1.920644 12.959342 -2.887154 1.730822 -5.192421 -0.396517 3.310104 -24.486139 0.000000 0.000000 0.000000 99.497284 -1.499237 2.956430 59.341644 -41.815365 -0.415769 1.216807 18.259102 37.695629 0.727003 15.972036 -10.512336 9.227645 -1.713726 40.347931 -0.000006 0.000050 -22.762135 0.000010 0.000039 -15.706733 0.000012 0.000001 -0.000042 8.885021 0.250486 -8.974883 6.944439 -0.064470 0.089739 7.006730 -0.032828 0.035962 -0.000008 0.000015 -0.000026 9.955196 0.081236 -11.156101 7.419154 -0.041203 0.034987 7.386454 -0.010325 0.034236 0.000032 0.000080 -0.000013 12.382004 -0.147455 -12.237491 8.915192 0.057159 -0.039035 8.855490 0.009174 -0.029656 -0.000026 0.000402 0.000010 13.948421 -0.401402 -15.058908 10.005560 0.117018 0.026726 9.950372 -0.001194 -0.008654 -0.000201 -0.000000 0.000023 0.000000 0.000000 0.000000 0.000000 0.000000 0.000000 -93.295860 0.477733 4.860045 -58.429081 47.554340 0.396423 -1.824989 -8.749228 50.006344 -1.808293 -15.093566 -16.238586 -8.740154 1.630579 40.630173 0.000010 0.000041 -21.382505 -0.000045 -0.000035 -14.617621 -0.000182 0.000005 -0.000989 -11.781596 0.274027 -12.278200 -8.011457 -0.010369 0.180046 -8.040684 0.028128 0.153927 0.000014 -0.000080 -0.000020 -12.649239 0.124162 -13.244464 -8.741306 -0.025891 0.054364 -8.434995 0.004718 0.042008 -0.000956 -0.000063 -0.000042 -14.902500 -0.103772 -12.244501 -10.227862 0.051111 -0.102111 -10.215798 -0.008445 -0.073023 0.000489 0.000010 0.000008 -16.473621 -0.386992 -12.261273 -11.272661 0.061423 -0.249801 -11.241336 -0.043045 -0.194906 -0.000756 0.000009 -0.000048 0.000000 0.000000 0.000000 0.000000 0.000000 0.000000 -4.059691 -6.468562 12.365196 -0.184996 -0.921650 12.612499 -0.451586 -14.347180 15.781375 -0.381112 -0.878350 -28.355040 0.000000 0.000000 0.000000 0.000000 0.000000 0.000000 0.000000 0.000000 0.000000 6.898325 4.643711 11.086647 0.208825 0.976329 11.513238 -0.289491 4.280969 15.662465 0.420428 0.137822 -27.801941 0.000000 0.000000 0.000000 0.000000 0.000000 0.000000 0.000000 0.000000 0.000000 
1.246593 86.286880 4.767341 -0.484222 -0.320067 -10.724598 -1.286566 0.164179 6.655429 8.470548 -2.318318 1.483992 -7.573475 1.635493 9.797117 2.377850 -0.981224 -0.872960 7.327767 1.908350 12.963472 -2.889908 1.725770 -5.189092 -0.385903 3.315904 -24.468925 0.000000 0.000000 0.000000 99.432983 -1.466490 2.986303 59.676308 -41.534523 -0.601554 1.250314 18.458019 37.661640 0.386531 16.195391 -10.575880 9.194056 -1.709267 40.369877 -0.000007 0.000050 -22.660530 0.000009 0.000042 -15.640601 0.000012 0.000001 -0.000042 8.634059 0.245141 -8.885930 6.863971 -0.064955 0.099345 6.927708 -0.033628 0.041364 -0.000008 0.000013 -0.000025 9.698874 0.078941 -11.072248 7.342712 -0.040805 0.035109 7.304760 -0.010191 0.034130 0.000031 0.000070 -0.000013 12.110201 -0.143547 -12.221916 8.834397 0.055902 -0.038031 8.774433 0.008588 -0.028329 -0.000024 0.000498 0.000011 13.723764 -0.386734 -15.092064 9.924809 0.112455 0.035994 9.872705 -0.003391 -0.001181 -0.000278 -0.000001 0.000012 0.000000 0.000000 0.000000 0.000000 0.000000 0.000000 -93.299568 0.484099 4.844517 -58.412014 47.548340 0.359437 -1.815694 -8.620949 50.049007 -1.923905 -14.914627 -16.048107 -8.751041 1.628870 40.629284 0.000009 0.000042 -21.399313 -0.000047 -0.000036 -14.635284 -0.000140 0.000004 -0.001166 -11.825160 0.265522 -12.209970 -8.081487 -0.006981 0.187194 -8.117141 0.030712 0.157695 0.000013 -0.000074 -0.000020 -12.690835 0.121161 -13.208865 -8.796717 -0.024339 0.057652 -8.501679 0.005462 0.044302 -0.001023 -0.000065 -0.000059 -14.895720 -0.097442 -12.283140 -10.252552 0.048505 -0.105366 -10.238419 -0.009370 -0.076021 0.000576 0.000010 0.000008 -16.368530 -0.369138 -12.345156 -11.252246 0.054383 -0.257986 -11.225199 -0.046885 -0.203940 -0.000769 0.000009 -0.000049 0.000000 0.000000 0.000000 0.000000 0.000000 0.000000 -3.990121 -6.416359 12.636141 -0.182860 -0.930611 12.516741 -0.465675 -14.320080 15.683495 -0.389108 -0.865301 -28.308588 0.000000 0.000000 0.000000 0.000000 0.000000 0.000000 0.000000 0.000000 0.000000 7.015831 4.778620 11.406344 0.206443 0.973660 11.393613 -0.347178 4.212177 15.507822 0.418396 0.137561 -27.757595 0.000000 0.000000 0.000000 0.000000 0.000000 0.000000 0.000000 0.000000 0.000000 
